<svg width="25" height="24" viewBox="0 0 25 24" fill="none" xmlns="http://www.w3.org/2000/svg">
<path d="M24.1668 21.7084V9.31258C24.1668 9.08618 24.1141 8.86289 24.0129 8.6604C23.9116 8.4579 23.7646 8.28175 23.5835 8.14591L13.3752 0.489664C13.1227 0.30034 12.8157 0.197998 12.5002 0.197998C12.1846 0.197998 11.8776 0.30034 11.6252 0.489664L1.41683 8.14591C1.23571 8.28175 1.08871 8.4579 0.987456 8.6604C0.886208 8.86289 0.833496 9.08618 0.833496 9.31258V21.7084C0.833496 22.0952 0.987142 22.4661 1.26063 22.7396C1.53412 23.0131 1.90506 23.1667 2.29183 23.1667H8.12516C8.51194 23.1667 8.88287 23.0131 9.15636 22.7396C9.42985 22.4661 9.5835 22.0952 9.5835 21.7084V17.3334C9.5835 16.9466 9.73714 16.5757 10.0106 16.3022C10.2841 16.0287 10.6551 15.8751 11.0418 15.8751H13.9585C14.3453 15.8751 14.7162 16.0287 14.9897 16.3022C15.2632 16.5757 15.4168 16.9466 15.4168 17.3334V21.7084C15.4168 22.0952 15.5705 22.4661 15.844 22.7396C16.1175 23.0131 16.4884 23.1667 16.8752 23.1667H22.7085C23.0953 23.1667 23.4662 23.0131 23.7397 22.7396C24.0132 22.4661 24.1668 22.0952 24.1668 21.7084Z" fill="#F8F8F8"/>
</svg>
